<svg xmlns="http://www.w3.org/2000/svg" viewBox="0 0 560 340" role="img" aria-labelledby="t d">
  <title id="t">凝聚体中的生物功能与状态调控</title><desc id="d">上方曲线比较不同环境中的功能保持，下方表示凝聚体老化与光调控。</desc><rect width="560" height="340" rx="18" fill="#0d1220"/>
  <path d="M62 151h214M62 151V42" stroke="#8995a1" stroke-width="3"/><path d="M72 65c51 5 88 17 129 42 29 18 47 25 67 29" fill="none" stroke="#5fe3c8" stroke-width="5"/><path d="M72 68c44 25 69 48 92 75 37 6 64 7 104 8" fill="none" stroke="#8b95a1" stroke-width="5"/><text x="93" y="37" fill="#dbe7e8" font-family="Arial,sans-serif" font-size="15">功能保持</text><text x="175" y="174" fill="#8995a1" font-family="Arial,sans-serif" font-size="14">时间 / 应激</text>
  <g transform="translate(320 44)"><circle cx="70" cy="66" r="51" fill="#237d77"/><circle cx="116" cy="69" r="33" fill="#237d77" opacity=".84"/><path d="M154 62h50" stroke="#5fe3c8" stroke-width="4" stroke-dasharray="6 6"/><path d="m199 51 14 11-14 11" fill="none" stroke="#5fe3c8" stroke-width="4"/><path d="M191 112l-32 87" stroke="#ffd65f" stroke-width="9"/><path d="m159 199 19-9-14-14" fill="#ffd65f"/><path d="M76 218c16-55 89-55 104 0-18 31-82 34-104 0z" fill="#c93c74"/><path d="M90 205c21 10 47-12 72 7" fill="none" stroke="#f3a4c3" stroke-width="5"/></g><text x="349" y="292" fill="#dbe7e8" font-family="Arial,sans-serif" font-size="15">形成 · 老化 · 光响应调控</text>
</svg>
